<svg width="24" height="24" viewBox="0 0 24 24" fill="none" xmlns="http://www.w3.org/2000/svg">
<path d="M21.3333 12H2.66667C2.48986 12 2.32029 11.9473 2.19526 11.8536C2.07024 11.7598 2 11.6326 2 11.5C2 11.3674 2.07024 11.2402 2.19526 11.1464C2.32029 11.0527 2.48986 11 2.66667 11H21.3333C21.5101 11 21.6797 11.0527 21.8047 11.1464C21.9298 11.2402 22 11.3674 22 11.5C22 11.6326 21.9298 11.7598 21.8047 11.8536C21.6797 11.9473 21.5101 12 21.3333 12Z" fill="#161A14"/>
<path d="M21.3333 19H2.66667C2.48986 19 2.32029 18.9473 2.19526 18.8536C2.07024 18.7598 2 18.6326 2 18.5C2 18.3674 2.07024 18.2402 2.19526 18.1464C2.32029 18.0527 2.48986 18 2.66667 18H21.3333C21.5101 18 21.6797 18.0527 21.8047 18.1464C21.9298 18.2402 22 18.3674 22 18.5C22 18.6326 21.9298 18.7598 21.8047 18.8536C21.6797 18.9473 21.5101 19 21.3333 19Z" fill="#161A14"/>
<path d="M21.3333 5H2.66667C2.48986 5 2.32029 4.94732 2.19526 4.85355C2.07024 4.75979 2 4.63261 2 4.5C2 4.36739 2.07024 4.24021 2.19526 4.14645C2.32029 4.05268 2.48986 4 2.66667 4H21.3333C21.5101 4 21.6797 4.05268 21.8047 4.14645C21.9298 4.24021 22 4.36739 22 4.5C22 4.63261 21.9298 4.75979 21.8047 4.85355C21.6797 4.94732 21.5101 5 21.3333 5Z" fill="#161A14"/>
</svg>
