<svg width="85" height="16" viewBox="0 0 85 16" fill="none" xmlns="http://www.w3.org/2000/svg">
<g clip-path="url(#clip0_158_3322)">
<path d="M2.03911 4.22932C1.50506 4.97376 0.900877 5.62649 0.242751 6.16054L0 5.98792C1.18139 4.65548 2.34659 2.34125 2.90762 0.582656C3.01011 0.269777 3.33918 0.0971537 3.65745 0.18886L4.67701 0.485556C4.62846 0.658179 4.47202 0.776857 4.07283 0.809224C8.23196 2.63795 7.03978 4.72561 6.17667 4.00275C5.93931 3.30147 5.38368 2.41138 4.56372 1.57524C4.27782 1.27854 3.78152 1.35946 3.59272 1.72628C3.37694 2.15245 3.12879 2.59479 2.85367 3.03175C2.60013 3.44173 2.88604 3.97038 3.36615 3.97038H3.95415C4.13756 3.97038 4.31018 3.88947 4.42886 3.74382L4.44504 3.72224C4.66082 3.45791 5.04922 3.41475 5.31355 3.64132C5.51854 3.81394 5.7559 4.02433 5.93392 4.21313C5.87997 4.40194 5.74511 4.48825 5.51854 4.48825H2.12003L2.03911 4.22932ZM4.4882 11.2691C7.45516 13.3082 6.67835 15.3797 5.78287 14.6191C5.7559 14.3655 5.68577 14.1012 5.58867 13.8261C5.4592 13.4539 5.02225 13.292 4.68779 13.5024C3.87862 14.0095 2.85367 14.6514 1.79636 15.261C1.69386 15.4498 1.53742 15.5739 1.43493 15.6063L1.14902 14.9859C1.03574 14.7431 1.0735 14.4411 1.27849 14.2738C1.40796 14.1659 1.43493 14.058 1.43493 13.8638V6.31698C1.43493 5.87463 1.89346 5.57794 2.29804 5.76135C2.37896 5.79911 2.46527 5.81529 2.55158 5.81529H5.05462C5.22185 5.81529 5.38368 5.74516 5.50236 5.62109L5.82063 5.28124L6.91032 6.14436C6.87795 6.20369 6.79703 6.26303 6.69454 6.31698C6.48415 6.41947 6.3385 6.61907 6.3385 6.85103V10.2442C6.3385 10.4923 6.19285 10.7189 5.96089 10.8106C5.83682 10.8591 5.70196 10.8969 5.57788 10.8969H5.4592V10.379H2.93999C2.60553 10.379 2.33041 10.6541 2.33041 10.9886V13.0978C2.33041 13.5348 2.77815 13.8315 3.18274 13.6589C3.6089 13.4754 4.06743 13.2758 4.54214 13.0655C4.882 12.9198 5.01686 12.5044 4.82266 12.1862C4.64464 11.8949 4.46123 11.6251 4.28321 11.3986L4.4882 11.2691ZM5.45381 7.15852V6.91037C5.45381 6.57591 5.17869 6.3008 4.84423 6.3008H2.93999C2.60553 6.3008 2.33041 6.57591 2.33041 6.91037V7.15852C2.33041 7.49297 2.60553 7.76809 2.93999 7.76809H4.84423C5.18409 7.76809 5.45381 7.49297 5.45381 7.15852ZM5.45381 9.24618V8.87935C5.45381 8.54489 5.17869 8.26978 4.84423 8.26978H2.93999C2.60553 8.26978 2.33041 8.54489 2.33041 8.87935V9.24618C2.33041 9.58063 2.60553 9.85575 2.93999 9.85575H4.84423C5.18409 9.85575 5.45381 9.58063 5.45381 9.24618ZM14.4086 8.27517C14.619 8.00545 15.0128 7.96229 15.2825 8.18347C15.5307 8.39385 15.8328 8.64739 16.0755 8.87396C16.0432 9.06276 15.8705 9.14907 15.6278 9.14907H13.8584C13.5239 9.14907 13.2488 9.42419 13.2488 9.75865V15.671C13.2488 15.7411 12.9359 15.9623 12.4882 15.9623H12.3479V9.75865C12.3479 9.42419 12.0728 9.14907 11.7384 9.14907H10.3682C10.0499 9.14907 9.78557 9.39183 9.7586 9.70471C9.59137 11.9704 8.94943 14.3278 6.45718 16.0001L6.23061 15.7951C8.15644 14.0257 8.71746 11.9326 8.85772 9.80181C8.8793 9.44577 8.60418 9.14907 8.24815 9.14907H6.7323L6.59204 8.64739H8.90627V8.26978V5.03309C8.90627 4.69864 8.63115 4.42352 8.2967 4.42352H7.3203L7.18004 3.92183H11.2637C11.4956 3.92183 11.706 3.78697 11.8085 3.58198C12.1969 2.82136 12.6231 1.82878 12.9683 0.841591C13.0816 0.517922 13.443 0.350694 13.7613 0.474767L14.7161 0.846985C14.6622 0.971058 14.5327 1.07895 14.3331 1.1221C14.1659 1.15986 14.0202 1.25157 13.9339 1.39722C13.621 1.92048 13.2704 2.44914 12.9036 2.94004C12.6015 3.34462 12.882 3.91644 13.3891 3.91644H13.5078C13.6912 3.91644 13.8638 3.83552 13.9825 3.68987L14.1065 3.53883C14.3223 3.2745 14.7053 3.23674 14.9643 3.45251C15.2178 3.6575 15.5253 3.91644 15.7626 4.14301C15.7087 4.33181 15.5361 4.41812 15.3149 4.41812H13.853C13.5185 4.41812 13.2434 4.69324 13.2434 5.0277V8.33991C13.2434 8.50713 13.3783 8.64739 13.5509 8.64739H13.9771C14.0688 8.64739 14.1605 8.60423 14.2198 8.52871L14.4086 8.27517ZM7.76804 0.329116C10.8914 2.05535 10.0445 4.19695 9.07889 3.42015C8.92245 2.45454 8.18341 1.20841 7.54147 0.453189L7.76804 0.329116ZM12.3425 8.03781V5.0277C12.3425 4.69324 12.0674 4.41812 11.733 4.41812H10.4167C10.0823 4.41812 9.80715 4.69324 9.80715 5.0277V8.2482V8.64739H11.733C12.0674 8.64739 12.3425 8.37227 12.3425 8.03781Z" fill="#492E24"/>
<path d="M23.6385 11.5819C23.9137 11.2367 24.4154 11.1827 24.7552 11.4632C24.9764 11.6467 25.2245 11.857 25.4295 12.0512C25.3756 12.2401 25.2029 12.3264 24.9656 12.3264H22.4895C22.0526 12.3264 21.7019 12.677 21.7019 13.114V15.6763C21.7019 15.7465 21.3891 15.9892 20.9251 15.9892H20.7849V13.1086C20.7849 12.6716 20.4342 12.321 19.9973 12.321H17.5536L17.4133 11.8031H19.9919C20.4288 11.8031 20.7795 11.4525 20.7795 11.0155V10.6055C20.7795 10.1686 20.4288 9.81794 19.9919 9.81794H19.296V10.3358C19.296 10.4221 18.8968 10.6487 18.5516 10.6487H18.3951V5.16251C18.3951 4.72016 18.8537 4.43425 19.2528 4.61767H19.2582C19.3392 4.65543 19.4255 4.677 19.5172 4.677H20.0135C20.4504 4.677 20.8011 4.32636 20.8011 3.88941V3.72218C20.8011 3.28523 20.4504 2.93459 20.0135 2.93459H17.6237L17.4835 2.4329H20.0135C20.4504 2.4329 20.8011 2.08226 20.8011 1.64531V1.11665C20.8011 0.647334 21.2056 0.285905 21.6696 0.334455L22.2845 0.399189C22.2737 0.507078 22.2252 0.604179 22.1227 0.679701C21.88 0.857719 21.7127 1.11665 21.7127 1.41874V1.65071C21.7127 2.08766 22.0634 2.4383 22.5003 2.4383H22.8725C23.0559 2.4383 23.2286 2.35738 23.3419 2.21173L23.412 2.12542C23.6871 1.78017 24.1834 1.72623 24.5232 2.00674C24.7714 2.21173 25.0573 2.45448 25.2839 2.66487C25.2299 2.85367 25.0573 2.93998 24.8199 2.93998H22.5003C22.0634 2.93998 21.7127 3.29063 21.7127 3.72758V3.9002C21.7127 4.33715 22.0634 4.68779 22.5003 4.68779H22.8294C22.9966 4.68779 23.1584 4.61767 23.2717 4.49359C23.4821 4.26163 23.8381 4.23466 24.0809 4.42346L24.8847 5.04922C24.8199 5.12475 24.7174 5.19487 24.5772 5.25961C24.3183 5.37829 24.1564 5.64261 24.1564 5.92852V9.71544C24.1564 10.0931 23.8921 10.4221 23.5199 10.4868C23.4713 10.4976 23.4228 10.503 23.3796 10.503H23.2609V9.82872H22.4787C22.0418 9.82872 21.6911 10.1794 21.6911 10.6163V11.0263C21.6911 11.4632 22.0418 11.8139 22.4787 11.8139H23.1638C23.3526 11.8085 23.5253 11.7222 23.6385 11.5819ZM19.3014 5.98247V6.18746C19.3014 6.62441 19.652 6.97505 20.089 6.97505H22.4841C22.9211 6.97505 23.2717 6.62441 23.2717 6.18746V5.98247C23.2717 5.54551 22.9211 5.19487 22.4841 5.19487H20.089C19.652 5.19487 19.3014 5.54551 19.3014 5.98247ZM20.0836 9.30546H22.4787C22.9157 9.30546 23.2663 8.95482 23.2663 8.51787V8.28051C23.2663 7.84356 22.9157 7.49292 22.4787 7.49292H20.0836C19.6466 7.49292 19.296 7.84356 19.296 8.28051V8.51787C19.3014 8.94943 19.652 9.30546 20.0836 9.30546ZM24.8415 6.21443C25.8071 4.95752 26.6648 3.07485 27.145 1.00876C27.2475 0.582601 27.6898 0.323666 28.1106 0.442344L28.9629 0.674307C28.9305 0.814563 28.8334 0.927847 28.6608 0.987186C28.4181 1.0735 28.2616 1.30007 28.1753 1.54282C28.0998 1.7586 28.0243 1.96898 27.9379 2.17397C27.733 2.68644 28.1267 3.24747 28.6824 3.24747H30.797C30.9804 3.24747 31.153 3.16655 31.2663 3.0209L31.3257 2.94538C31.6008 2.60013 32.1079 2.54619 32.4477 2.8321C32.6959 3.04248 32.9818 3.28523 33.2083 3.49022C33.176 3.67903 33.0034 3.76534 32.7606 3.76534H27.6305C27.3553 3.76534 27.1018 3.91099 26.9562 4.14835C26.4059 5.03843 25.7748 5.81524 25.0789 6.40863L24.8415 6.21443ZM32.8038 13.8368C32.7984 14.1227 32.9116 14.414 33.1544 14.5705C33.2515 14.6298 33.2785 14.6999 33.2785 14.8078C33.2785 15.2394 32.4154 15.4659 30.6568 15.4659H27.9487C26.1686 15.4659 25.3756 15.1531 25.2731 14.1011C25.149 12.9198 26.681 11.3014 29.06 8.11328C29.4484 7.59541 29.0816 6.85098 28.4342 6.85098H26.0337L25.8934 6.34929H29.8422C30.0634 6.34929 30.2791 6.25758 30.4248 6.09036L30.6729 5.81524L31.8274 6.76466C31.7141 6.85098 31.5846 6.91032 31.3742 6.95347C31.1854 6.99123 31.0074 7.08833 30.8833 7.23938C27.6736 11.118 26.12 13.1571 26.2225 13.9987C26.2764 14.4842 26.8105 14.6352 27.9811 14.6352H30.6028C31.795 14.6352 31.9299 14.5651 32.0377 14.3223C32.2643 13.8746 32.4369 13.0276 32.6096 12.0081L32.8361 12.0243L32.8038 13.8368Z" fill="#492E24"/>
<path d="M48.8577 13.8854C48.9332 13.7937 49.0627 13.7775 49.1544 13.8476C49.4457 14.0742 50.0715 14.5705 50.4922 14.9805C50.4599 15.1531 50.3034 15.2394 50.0445 15.2394H34.8537L34.7134 14.7377H41.8179C41.9366 14.7377 42.0337 14.6406 42.0337 14.5219V9.98519C42.0337 9.86652 41.9366 9.76941 41.8179 9.76941H36.7849L36.6446 9.25155H41.8125C41.9312 9.25155 42.0283 9.15444 42.0283 9.03577V5.11938C42.0283 5.0007 41.9312 4.9036 41.8125 4.9036H38.1119C38.0364 4.9036 37.9663 4.94676 37.9285 5.01149C37.0276 6.55431 35.9811 7.88135 34.8645 8.85775L34.6217 8.66894C36.1214 6.88337 37.6426 4.05667 38.5327 1.04656C38.5651 0.927877 38.6891 0.863144 38.8024 0.900905L40.1618 1.34865C40.1025 1.52666 39.9299 1.66692 39.6494 1.69389C39.563 1.69929 39.4875 1.74784 39.4551 1.82875C39.1477 2.60016 38.8078 3.36078 38.441 4.07825C38.3655 4.2239 38.468 4.39113 38.6298 4.39113H41.8071C41.9258 4.39113 42.0229 4.29403 42.0229 4.17535V0.485531C42.0229 0.356063 42.1362 0.253568 42.2657 0.269752L43.5927 0.431586C43.5603 0.625787 43.4471 0.776832 43.1504 0.863144C43.0587 0.890116 42.9885 0.965639 42.9885 1.06274V4.16995C42.9885 4.28863 43.0856 4.38573 43.2043 4.38573H47.0452C47.1099 4.38573 47.1692 4.35876 47.2124 4.31021L47.8436 3.56038C47.9191 3.47407 48.0485 3.45788 48.1402 3.52801C48.4208 3.74919 49.0195 4.2185 49.4619 4.62848C49.4079 4.81729 49.2353 4.9036 48.998 4.9036H43.2151C43.0964 4.9036 42.9993 5.0007 42.9993 5.11938V9.03577C42.9993 9.15444 43.0964 9.25155 43.2151 9.25155H46.4194C46.4841 9.25155 46.5435 9.22457 46.5866 9.17063L47.2016 8.42619C47.2771 8.33449 47.4066 8.3183 47.4983 8.39382C47.7896 8.62039 48.3992 9.10589 48.82 9.4889C48.7876 9.67771 48.615 9.76402 48.3722 9.76402H43.2205C43.1018 9.76402 43.0047 9.86112 43.0047 9.9798V14.5165C43.0047 14.6352 43.1018 14.7323 43.2205 14.7323H48.0647C48.1295 14.7323 48.1888 14.7054 48.232 14.6514L48.8577 13.8854Z" fill="#492E24"/>
<path d="M55.0721 6.88874C54.8186 6.88874 54.6136 7.09373 54.6136 7.34727V8.23736C54.6136 10.3412 54.4248 13.6049 52.1645 15.9353L51.9218 15.7303C53.5455 13.3675 53.7343 10.6217 53.7343 8.23736V6.59204C53.7343 6.26298 54.0741 6.04181 54.3762 6.17667L54.592 6.27377C54.7431 6.3385 54.9049 6.37626 55.0667 6.37626H65.1166C65.2515 6.37626 65.381 6.31693 65.4673 6.20904L65.8071 5.79906C65.9636 5.61025 66.2441 5.57788 66.4383 5.72893C66.7404 5.96628 67.1719 6.31693 67.4848 6.61362C67.4309 6.80243 67.2798 6.88874 67.0371 6.88874H55.0721V6.88874ZM65.9959 1.72623C66.2063 1.45651 66.5893 1.40796 66.859 1.62374C67.145 1.8503 67.501 2.147 67.7707 2.40054C67.7168 2.58935 67.5441 2.67566 67.323 2.67566H63.4713L64.2805 3.27984C64.1888 3.38233 64.0863 3.42549 63.9298 3.40391C63.6979 3.36615 63.4605 3.44707 63.2555 3.56575C63.0452 3.68982 62.8186 3.81389 62.5758 3.93796C62.2414 4.10519 62.2522 4.57991 62.5866 4.75253C64.356 5.67498 64.0323 6.48415 63.3365 6.28456C62.7808 5.87458 61.8799 5.37289 60.7525 4.8766C60.6392 4.82805 60.5151 4.82266 60.3965 4.86581C58.7781 5.4592 56.9008 5.9501 55.1369 6.18206L55.0182 5.90695C56.151 5.66419 57.3594 5.31355 58.5138 4.89278C58.9184 4.74713 58.913 4.15914 58.503 4.02967C57.7586 3.79231 56.9656 3.57653 56.1456 3.38773L56.2319 3.05866C57.8826 3.30142 59.2151 3.58193 60.2616 3.87323C60.5367 3.94875 60.828 3.92717 61.087 3.79771L61.5994 3.54956C62.0364 3.33378 61.8853 2.68105 61.3998 2.68105H52.7039L52.5475 2.15779H59.1935C59.5603 2.15779 59.7707 1.7532 59.5765 1.44572C59.2528 0.944032 58.7781 0.45853 58.3466 0.15644L58.5354 0C60.1645 0.404585 60.7309 1.20297 60.7633 1.7586C60.7795 1.98517 60.9845 2.15779 61.2164 2.15779H65.2353C65.505 2.15779 65.7586 2.03372 65.9204 1.81794L65.9959 1.72623ZM65.8934 14.3493C66.1038 14.085 66.4868 14.0418 66.7458 14.2468C67.0317 14.4734 67.3877 14.7701 67.6628 15.0344C67.6089 15.2232 67.4578 15.3095 67.2151 15.3095H54.7862L54.6298 14.7916H60.0944C60.3479 14.7916 60.5529 14.5866 60.5529 14.3331V12.9521C60.5529 12.6986 60.3479 12.4936 60.0944 12.4936H56.9926L56.8523 11.9757H60.089C60.3425 11.9757 60.5475 11.7707 60.5475 11.5172V10.3412C60.5475 10.0877 60.3425 9.88267 60.089 9.88267H57.5698C57.4133 9.88267 57.2677 9.96359 57.1868 10.0984C56.6797 10.9076 56.0701 11.6035 55.4228 12.1106L55.18 11.938C55.9676 10.9777 56.7282 9.51045 57.2083 7.89751C57.2839 7.64936 57.5428 7.50371 57.7909 7.59002L58.7673 7.91908C58.708 8.04855 58.6055 8.15644 58.4383 8.21038C58.2495 8.26433 58.0876 8.37222 58.0067 8.55024C58.0067 8.55563 58.0013 8.55563 58.0013 8.56102C57.8287 8.94943 58.1146 9.38638 58.5408 9.38638H60.089C60.3425 9.38638 60.5475 9.18139 60.5475 8.92785V7.74107C60.5475 7.46595 60.7849 7.25556 61.0546 7.28793L62.031 7.40121C62.004 7.56305 61.9285 7.68712 61.7397 7.76804C61.5779 7.84356 61.4592 7.98921 61.4592 8.16723V8.92785C61.4592 9.18139 61.6642 9.38638 61.9177 9.38638H63.7141C63.9784 9.38638 64.2319 9.2677 64.3938 9.05732L64.4801 8.94403C64.6905 8.6797 65.0789 8.63655 65.3432 8.85233C65.6183 9.0735 65.9528 9.35401 66.2225 9.61295C66.1686 9.80175 66.0175 9.88806 65.7748 9.88806H61.9177C61.6642 9.88806 61.4592 10.0931 61.4592 10.3466V11.5226C61.4592 11.7761 61.6642 11.9811 61.9177 11.9811H63.3526C63.6116 11.9811 63.8543 11.8678 64.0162 11.6736L64.1079 11.5604C64.3236 11.3014 64.7066 11.269 64.9656 11.4848C65.2299 11.706 65.5536 11.9811 65.8071 12.2185C65.7532 12.4073 65.6183 12.4936 65.3756 12.4936H61.9123C61.6588 12.4936 61.4538 12.6986 61.4538 12.9521V14.3331C61.4538 14.5866 61.6588 14.7916 61.9123 14.7916H65.1112C65.3756 14.7916 65.6291 14.673 65.7909 14.4626L65.8934 14.3493Z" fill="#492E24"/>
<path d="M71.1207 4.17528C70.5704 4.9359 69.9123 5.64257 69.2542 6.21439L68.9952 6.04176C70.2198 4.6446 71.4227 2.30879 71.9892 0.53401C72.0809 0.253497 72.3776 0.102452 72.6581 0.183369L73.7586 0.501643C73.7046 0.690449 73.5536 0.792944 73.122 0.830706C77.47 2.57312 76.3155 4.69854 75.4362 4.00805C75.1449 3.2798 74.4868 2.33576 73.5698 1.49962C73.3054 1.25687 72.8847 1.33239 72.7174 1.65067C72.4693 2.13077 72.1834 2.63246 71.8651 3.12875C71.6277 3.49557 71.8867 3.97568 72.3182 3.97568H73.2299C73.3917 3.97568 73.5482 3.90555 73.6507 3.78148L73.7478 3.6628C73.942 3.43084 74.2818 3.39847 74.5138 3.59267C74.7404 3.77609 75.0155 4.01344 75.2258 4.22383C75.1935 4.41263 75.0209 4.49895 74.7943 4.49895H71.207L71.1207 4.17528ZM74.4059 5.65876C74.6001 5.45377 74.913 5.42679 75.1395 5.59942L75.8516 6.14426C75.7977 6.21439 75.7006 6.28991 75.5657 6.34925C75.3769 6.43017 75.2636 6.63516 75.2636 6.84015V10.2872C75.2636 10.4922 75.1557 10.681 74.9723 10.7727C74.8321 10.8428 74.6594 10.8968 74.503 10.8968H74.3843V10.3789H71.8435C71.5414 10.3789 71.2987 10.6217 71.2987 10.9238V13.2218C71.2987 13.6156 71.6979 13.8799 72.0593 13.7235C72.5016 13.5293 72.9764 13.3243 73.4673 13.1085C73.7747 12.9737 73.8934 12.5907 73.71 12.3101C73.5374 12.0458 73.3594 11.8031 73.1921 11.5873L73.4349 11.4686C76.472 13.4861 75.6952 15.5792 74.7997 14.8024C74.7511 14.4787 74.6379 14.1065 74.4706 13.7289C74.3358 13.4268 73.9689 13.3189 73.6884 13.4969C72.9062 13.9878 71.8921 14.6298 70.8294 15.2447C70.7592 15.2825 70.7053 15.3418 70.6567 15.4066C70.5704 15.5198 70.4787 15.59 70.3978 15.6331L70.0687 14.9372C69.9608 14.7107 70.0418 14.4517 70.2414 14.2953C70.3762 14.1874 70.4032 14.0795 70.4032 13.8853V6.23057C70.4032 5.83138 70.824 5.56705 71.1854 5.73428L71.2771 5.77744C71.3526 5.8098 71.4281 5.83138 71.5091 5.83138H74.0121C74.1577 5.83677 74.3034 5.77204 74.4059 5.65876ZM74.3843 7.22315V6.85093C74.3843 6.54884 74.1416 6.30609 73.8395 6.30609H71.8435C71.5414 6.30609 71.2987 6.54884 71.2987 6.85093V7.22315C71.2987 7.52524 71.5414 7.76799 71.8435 7.76799H73.8395C74.1362 7.76799 74.3843 7.52524 74.3843 7.22315ZM74.3843 9.31081V8.8361C74.3843 8.53401 74.1416 8.29126 73.8395 8.29126H71.8435C71.5414 8.29126 71.2987 8.53401 71.2987 8.8361V9.31081C71.2987 9.6129 71.5414 9.85566 71.8435 9.85566H73.8395C74.1362 9.85566 74.3843 9.6129 74.3843 9.31081ZM79.18 3.20967C78.9804 3.20967 78.7916 3.32295 78.6999 3.50097C77.9555 4.90353 77.0762 6.15505 76.1429 7.0775L75.884 6.90488C76.9737 5.44837 78.0741 3.18809 78.77 0.830706C78.8563 0.528615 79.1692 0.361387 79.4659 0.463882L80.4045 0.782155C80.3452 0.917017 80.2319 1.0303 80.0431 1.08425C79.8651 1.1328 79.714 1.24608 79.6493 1.4187C79.5792 1.59672 79.5091 1.76934 79.4389 1.94197C79.2879 2.3034 79.5522 2.69719 79.9406 2.69719H82.4976C82.6378 2.69719 82.7781 2.64325 82.8806 2.54075L82.9615 2.45984C83.1773 2.24945 83.5279 2.25485 83.7383 2.47602L84.3911 3.16112C84.2886 3.26361 84.1483 3.31216 83.9271 3.33374C83.7707 3.34992 83.625 3.43624 83.5333 3.5657C82.9238 4.43961 81.8449 5.80441 81.1598 6.59739L80.9008 6.45714C81.2407 5.84756 81.764 4.87116 82.2009 4.00265C82.3843 3.64122 82.12 3.20967 81.71 3.20967H79.18V3.20967Z" fill="#492E24"/>
<path d="M80.9063 7.63318C80.9063 7.63318 80.7876 8.80378 78.6622 9.64532C76.5367 10.4869 76.5367 12.499 76.5367 12.499C76.5367 12.499 76.5367 14.0202 77.88 14.5111C77.88 14.5111 79.2232 15.18 81.2353 15.18C81.2353 15.18 83.2475 15.18 83.9164 14.5111C83.9164 14.5111 85.2057 13.7559 84.8982 11.7869C84.8982 11.7869 84.5907 10.4869 83.2475 9.81255" fill="#492E24"/>
<path d="M77.7074 13.4538C77.7074 13.4538 78.8618 14.6028 81.1868 14.6028C81.1868 14.6028 83.5118 14.6028 84.0891 13.443" fill="#F1F2ED"/>
<path d="M77.6372 12.5152C77.6803 11.9164 78.1389 11.4417 78.6082 11.118C79.1207 10.762 79.6925 10.5031 80.1456 10.0661C80.2211 9.99599 80.1078 9.87732 80.0323 9.95284C79.1908 10.7674 77.5778 11.1396 77.4807 12.5206C77.47 12.6177 77.6318 12.6177 77.6372 12.5152Z" fill="#F1F2ED"/>
<path d="M79.412 12.1754C79.7249 11.7708 80.054 11.377 80.3399 10.9562C80.6042 10.5678 80.8092 10.1255 80.7984 9.64535C80.7984 9.54286 80.6366 9.54286 80.6366 9.64535C80.642 10.1147 80.4316 10.5354 80.1726 10.9077C79.8975 11.3015 79.59 11.6737 79.2987 12.0567C79.234 12.143 79.3473 12.2617 79.412 12.1754Z" fill="#F1F2ED"/>
<path d="M81.3 9.11125C81.4673 9.42952 81.7424 9.6507 82.0337 9.85029C82.3627 10.0769 82.6918 10.2926 82.9723 10.5839C83.5333 11.1719 83.8948 11.938 83.9919 12.7471C84.0026 12.8496 84.1645 12.8496 84.1537 12.7471C84.062 11.9703 83.7437 11.2367 83.2366 10.6379C82.9885 10.3412 82.6918 10.0984 82.3735 9.88266C82.0175 9.6453 81.6399 9.41873 81.4403 9.03033C81.3917 8.93863 81.2569 9.01954 81.3 9.11125Z" fill="#F1F2ED"/>
<path d="M82.379 12.2724C82.4383 11.501 81.9852 10.8429 81.5213 10.2765C81.4565 10.1956 81.3433 10.3089 81.408 10.3898C81.845 10.9238 82.2765 11.5442 82.2172 12.2724C82.2064 12.3803 82.3682 12.3803 82.379 12.2724Z" fill="#F1F2ED"/>
</g>
<defs>
<clipPath id="clip0_158_3322">
<rect width="84.9413" height="16" fill="white"/>
</clipPath>
</defs>
</svg>
