<svg width="170" height="32" viewBox="0 0 170 32" fill="none" xmlns="http://www.w3.org/2000/svg">
<g clip-path="url(#clip0_158_3300)">
<path d="M4.07822 8.45851C3.01011 9.94739 1.80175 11.2529 0.485502 12.321L0 11.9757C2.36278 9.31084 4.69319 4.68238 5.81524 1.16519C6.02023 0.539431 6.67835 0.194185 7.3149 0.377597L9.35401 0.970989C9.25691 1.31624 8.94403 1.55359 8.14565 1.61833C16.4639 5.27578 14.0796 9.4511 12.3533 8.00538C11.8786 6.60282 10.7674 4.82264 9.12744 3.15036C8.55563 2.55696 7.56305 2.7188 7.18543 3.45245C6.75388 4.30477 6.25759 5.18946 5.70735 6.06337C5.20027 6.88333 5.77208 7.94065 6.7323 7.94065H7.90829C8.27512 7.94065 8.62036 7.77881 8.85772 7.48751L8.89009 7.44435C9.32165 6.9157 10.0984 6.82938 10.6271 7.28252C11.0371 7.62777 11.5118 8.04853 11.8678 8.42615C11.7599 8.80376 11.4902 8.97638 11.0371 8.97638H4.24005L4.07822 8.45851ZM8.9764 22.5381C14.9103 26.6163 13.3567 30.7593 11.5657 29.238C11.5118 28.7309 11.3715 28.2023 11.1773 27.652C10.9184 26.9076 10.0445 26.5839 9.37559 27.0047C7.75725 28.0189 5.70735 29.3027 3.59272 30.5219C3.38773 30.8995 3.07485 31.1477 2.86986 31.2124L2.29804 29.9717C2.07148 29.4862 2.147 28.882 2.55698 28.5475C2.81591 28.3317 2.86986 28.116 2.86986 27.7276V12.6338C2.86986 11.7491 3.78692 11.1558 4.59609 11.5226C4.75792 11.5981 4.93055 11.6305 5.10317 11.6305H10.1092C10.4437 11.6305 10.7674 11.4902 11.0047 11.2421L11.6413 10.5624L13.8206 12.2886C13.7559 12.4073 13.5941 12.5259 13.3891 12.6338C12.9683 12.8388 12.677 13.238 12.677 13.7019V20.4882C12.677 20.9845 12.3857 21.4376 11.9218 21.621C11.6736 21.7181 11.4039 21.7936 11.1558 21.7936H10.9184V20.7579H5.87997C5.21106 20.7579 4.66082 21.3081 4.66082 21.9771V26.1955C4.66082 27.0694 5.5563 27.6628 6.36548 27.3176C7.2178 26.9508 8.13486 26.5516 9.08429 26.1308C9.76399 25.8395 10.0337 25.0088 9.64531 24.3722C9.28928 23.7896 8.92245 23.2502 8.56642 22.797L8.9764 22.5381ZM10.9076 14.3169V13.8206C10.9076 13.1517 10.3574 12.6015 9.68847 12.6015H5.87997C5.21106 12.6015 4.66082 13.1517 4.66082 13.8206V14.3169C4.66082 14.9858 5.21106 15.5361 5.87997 15.5361H9.68847C10.3682 15.5361 10.9076 14.9858 10.9076 14.3169ZM10.9076 18.4922V17.7586C10.9076 17.0897 10.3574 16.5394 9.68847 16.5394H5.87997C5.21106 16.5394 4.66082 17.0897 4.66082 17.7586V18.4922C4.66082 19.1611 5.21106 19.7114 5.87997 19.7114H9.68847C10.3682 19.7114 10.9076 19.1611 10.9076 18.4922ZM28.8173 16.5502C29.238 16.0108 30.0256 15.9245 30.5651 16.3668C31.0614 16.7876 31.6655 17.2947 32.151 17.7478C32.0863 18.1254 31.7411 18.298 31.2556 18.298H27.7168C27.0479 18.298 26.4976 18.8483 26.4976 19.5172V31.3419C26.4976 31.4821 25.8719 31.9245 24.9764 31.9245H24.6959V19.5172C24.6959 18.8483 24.1457 18.298 23.4767 18.298H20.7363C20.0998 18.298 19.5711 18.7835 19.5172 19.4093C19.1827 23.9406 17.8989 28.6554 12.9144 32L12.4612 31.59C16.3129 28.0512 17.4349 23.8651 17.7154 19.6035C17.7586 18.8914 17.2084 18.298 16.4963 18.298H13.4646L13.1841 17.2947H17.8125V16.5394V10.0661C17.8125 9.39715 17.2623 8.84692 16.5934 8.84692H14.6406L14.3601 7.84354H22.5273C22.9912 7.84354 23.412 7.57382 23.617 7.16384C24.3938 5.6426 25.2461 3.65744 25.9366 1.68306C26.1632 1.03572 26.886 0.701266 27.5226 0.949411L29.4322 1.69385C29.3243 1.94199 29.0654 2.15777 28.6662 2.24408C28.3318 2.31961 28.0405 2.50302 27.8678 2.79432C27.2421 3.84085 26.5408 4.89816 25.8071 5.87996C25.203 6.68913 25.764 7.83276 26.7782 7.83276H27.0155C27.3823 7.83276 27.7276 7.67092 27.9649 7.37962L28.2131 7.07753C28.6446 6.54887 29.4107 6.47335 29.9285 6.90491C30.4356 7.31489 31.0506 7.83276 31.5253 8.28589C31.4174 8.6635 31.0722 8.83613 30.6298 8.83613H27.706C27.0371 8.83613 26.4869 9.38636 26.4869 10.0553V16.6797C26.4869 17.0141 26.7566 17.2947 27.1018 17.2947H27.9541C28.1376 17.2947 28.321 17.2083 28.4397 17.0573L28.8173 16.5502ZM15.5361 0.65811C21.7829 4.11057 20.089 8.39378 18.1578 6.84017C17.8449 4.90895 16.3668 2.41671 15.0829 0.906255L15.5361 0.65811ZM24.6851 16.0755V10.0553C24.6851 9.38636 24.1349 8.83613 23.4659 8.83613H20.8334C20.1645 8.83613 19.6143 9.38636 19.6143 10.0553V16.4963V17.2947H23.4659C24.1349 17.2947 24.6851 16.7444 24.6851 16.0755Z" fill="#492E24"/>
<path d="M47.2771 23.1639C47.8273 22.4734 48.8307 22.3655 49.5104 22.9265C49.9528 23.2933 50.449 23.7141 50.859 24.1025C50.7511 24.4801 50.4059 24.6527 49.9312 24.6527H44.9791C44.1051 24.6527 43.4039 25.354 43.4039 26.2279V31.3527C43.4039 31.4929 42.7781 31.9784 41.8503 31.9784H41.5697V26.2171C41.5697 25.3432 40.8685 24.6419 39.9946 24.6419H35.1072L34.8267 23.6062H39.9838C40.8577 23.6062 41.559 22.9049 41.559 22.031V21.2111C41.559 20.3371 40.8577 19.6359 39.9838 19.6359H38.592V20.6716C38.592 20.8442 37.7936 21.2974 37.1031 21.2974H36.7902V10.325C36.7902 9.44032 37.7073 8.86851 38.5057 9.23533H38.5165C38.6783 9.31085 38.8509 9.35401 39.0343 9.35401H40.0269C40.9008 9.35401 41.6021 8.65273 41.6021 7.77882V7.44437C41.6021 6.57046 40.9008 5.86918 40.0269 5.86918H35.2474L34.9669 4.86581H40.0269C40.9008 4.86581 41.6021 4.16453 41.6021 3.29062V2.23331C41.6021 1.29467 42.4113 0.57181 43.3391 0.66891L44.5691 0.798377C44.5475 1.01416 44.4504 1.20836 44.2454 1.3594C43.7599 1.71544 43.4254 2.23331 43.4254 2.83749V3.30141C43.4254 4.17532 44.1267 4.8766 45.0006 4.8766H45.7451C46.1119 4.8766 46.4571 4.71476 46.6837 4.42346L46.824 4.25084C47.3742 3.56035 48.3668 3.45246 49.0465 4.01348C49.5428 4.42346 50.1146 4.90896 50.5677 5.32973C50.4598 5.70735 50.1146 5.87997 49.6399 5.87997H45.0006C44.1267 5.87997 43.4254 6.58125 43.4254 7.45515V7.8004C43.4254 8.6743 44.1267 9.37559 45.0006 9.37559H45.6588C45.9932 9.37559 46.3169 9.23533 46.5435 8.98718C46.9642 8.52326 47.6763 8.46931 48.1618 8.84693L49.7693 10.0984C49.6399 10.2495 49.4349 10.3897 49.1544 10.5192C48.6365 10.7566 48.3128 11.2852 48.3128 11.857V19.4309C48.3128 20.1861 47.7842 20.8442 47.0397 20.9737C46.9426 20.9953 46.8455 21.0061 46.7592 21.0061H46.5219V19.6574H44.9575C44.0836 19.6574 43.3823 20.3587 43.3823 21.2326V22.0526C43.3823 22.9265 44.0836 23.6278 44.9575 23.6278H46.3277C46.7053 23.617 47.0505 23.4444 47.2771 23.1639ZM38.6028 11.9649V12.3749C38.6028 13.2488 39.3041 13.9501 40.178 13.9501H44.9683C45.8422 13.9501 46.5435 13.2488 46.5435 12.3749V11.9649C46.5435 11.091 45.8422 10.3897 44.9683 10.3897H40.178C39.3041 10.3897 38.6028 11.091 38.6028 11.9649ZM40.1672 18.6109H44.9575C45.8314 18.6109 46.5327 17.9096 46.5327 17.0357V16.561C46.5327 15.6871 45.8314 14.9858 44.9575 14.9858H40.1672C39.2933 14.9858 38.592 15.6871 38.592 16.561V17.0357C38.6028 17.8988 39.3041 18.6109 40.1672 18.6109ZM49.683 12.4289C51.6143 9.91503 53.3297 6.14969 54.2899 2.01753C54.4949 1.1652 55.3796 0.647332 56.2211 0.884689L57.9258 1.34861C57.861 1.62913 57.6669 1.85569 57.3216 1.97437C56.8361 2.14699 56.5232 2.60013 56.3506 3.08563C56.1996 3.51719 56.0485 3.93796 55.8759 4.34794C55.4659 5.37289 56.2535 6.49494 57.3648 6.49494H61.594C61.9608 6.49494 62.3061 6.3331 62.5327 6.0418L62.6513 5.89076C63.2016 5.20027 64.2157 5.09238 64.8954 5.66419C65.3917 6.08496 65.9635 6.57046 66.4167 6.98044C66.3519 7.35805 66.0067 7.53068 65.5212 7.53068H55.2609C54.7107 7.53068 54.2036 7.82198 53.9123 8.29669C52.8118 10.0769 51.5495 11.6305 50.1577 12.8173L49.683 12.4289ZM65.6075 27.6736C65.5967 28.2454 65.8233 28.828 66.3088 29.1409C66.503 29.2596 66.5569 29.3999 66.5569 29.6156C66.5569 30.4788 64.8307 30.9319 61.3135 30.9319H55.8975C52.3371 30.9319 50.7511 30.3061 50.5461 28.2023C50.298 25.8395 53.3621 22.6028 58.12 16.2266C58.8968 15.1908 58.1631 13.702 56.8685 13.702H52.0674L51.7869 12.6986H59.6844C60.1267 12.6986 60.5583 12.5152 60.8496 12.1807L61.3459 11.6305L63.6547 13.5293C63.4281 13.702 63.1692 13.8206 62.7484 13.9069C62.3708 13.9825 62.0148 14.1767 61.7666 14.4788C55.3472 22.236 52.24 26.3142 52.445 27.9973C52.5529 28.9683 53.621 29.2704 55.9622 29.2704H61.2056C63.59 29.2704 63.8597 29.1301 64.0755 28.6446C64.5286 27.7492 64.8739 26.0553 65.2191 24.0162L65.6722 24.0485L65.6075 27.6736Z" fill="#492E24"/>
<path d="M97.7154 27.7708C97.8665 27.5874 98.1254 27.555 98.3088 27.6953C98.8914 28.1484 100.143 29.141 100.984 29.9609C100.92 30.3062 100.607 30.4788 100.089 30.4788H69.7073L69.4268 29.4754H83.6359C83.8732 29.4754 84.0674 29.2812 84.0674 29.0439V19.9704C84.0674 19.733 83.8732 19.5388 83.6359 19.5388H73.5698L73.2893 18.5031H83.6251C83.8624 18.5031 84.0566 18.3089 84.0566 18.0715V10.2388C84.0566 10.0014 83.8624 9.8072 83.6251 9.8072H76.2239C76.0728 9.8072 75.9325 9.89352 75.857 10.023C74.0553 13.1086 71.9622 15.7627 69.7289 17.7155L69.2434 17.3379C72.2427 13.7667 75.2852 8.11334 77.0654 2.09311C77.1301 1.85575 77.3783 1.72629 77.6048 1.80181L80.3236 2.69729C80.205 3.05333 79.8597 3.33384 79.2987 3.38778C79.1261 3.39857 78.975 3.49567 78.9103 3.65751C78.2953 5.20033 77.6156 6.72157 76.882 8.1565C76.7309 8.4478 76.9359 8.78226 77.2596 8.78226H83.6143C83.8516 8.78226 84.0458 8.58805 84.0458 8.3507V0.971061C84.0458 0.712127 84.2724 0.507137 84.5313 0.539504L87.1854 0.863172C87.1207 1.25157 86.8941 1.55366 86.3007 1.72629C86.1173 1.78023 85.9771 1.93128 85.9771 2.12548V8.33991C85.9771 8.57726 86.1713 8.77147 86.4086 8.77147H94.0903C94.2198 8.77147 94.3385 8.71752 94.4248 8.62042L95.6871 7.12076C95.8382 6.94813 96.0971 6.91577 96.2805 7.05602C96.8415 7.49837 98.0391 8.43701 98.9238 9.25697C98.8159 9.63458 98.4707 9.8072 97.9959 9.8072H86.4302C86.1928 9.8072 85.9986 10.0014 85.9986 10.2388V18.0715C85.9986 18.3089 86.1928 18.5031 86.4302 18.5031H92.8388C92.9683 18.5031 93.087 18.4491 93.1733 18.3413L94.4032 16.8524C94.5543 16.669 94.8132 16.6366 94.9966 16.7876C95.5792 17.2408 96.7984 18.2118 97.6399 18.9778C97.5752 19.3554 97.2299 19.528 96.7444 19.528H86.441C86.2036 19.528 86.0094 19.7222 86.0094 19.9596V29.0331C86.0094 29.2705 86.2036 29.4647 86.441 29.4647H96.1294C96.2589 29.4647 96.3776 29.4107 96.4639 29.3028L97.7154 27.7708Z" fill="#492E24"/>
<path d="M110.144 13.7775C109.637 13.7775 109.227 14.1875 109.227 14.6945V16.4747C109.227 20.6824 108.85 27.2097 104.329 31.8705L103.844 31.4606C107.091 26.735 107.469 21.2434 107.469 16.4747V13.1841C107.469 12.526 108.148 12.0836 108.752 12.3533L109.184 12.5475C109.486 12.677 109.81 12.7525 110.133 12.7525H130.233C130.503 12.7525 130.762 12.6339 130.935 12.4181L131.614 11.5981C131.927 11.2205 132.488 11.1558 132.877 11.4579C133.481 11.9326 134.344 12.6339 134.97 13.2272C134.862 13.6049 134.56 13.7775 134.074 13.7775H110.144V13.7775ZM131.992 3.45246C132.413 2.91301 133.179 2.81591 133.718 3.24747C134.29 3.70061 135.002 4.294 135.541 4.80108C135.434 5.17869 135.088 5.35131 134.646 5.35131H126.943L128.561 6.55968C128.378 6.76467 128.173 6.85098 127.86 6.80782C127.396 6.7323 126.921 6.89413 126.511 7.13149C126.09 7.37964 125.637 7.62778 125.152 7.87593C124.483 8.21038 124.504 9.15981 125.173 9.50506C128.712 11.35 128.065 12.9683 126.673 12.5691C125.562 11.7492 123.76 10.7458 121.505 9.7532C121.278 9.6561 121.03 9.64531 120.793 9.73163C117.556 10.9184 113.802 11.9002 110.274 12.3641L110.036 11.8139C112.302 11.3284 114.719 10.6271 117.028 9.78557C117.837 9.49427 117.826 8.31827 117.006 8.05934C115.517 7.58463 113.931 7.15307 112.291 6.77546L112.464 6.11733C115.765 6.60283 118.43 7.16386 120.523 7.74646C121.073 7.8975 121.656 7.85435 122.174 7.59541L123.199 7.09912C124.073 6.66757 123.771 5.3621 122.8 5.3621H105.408L105.095 4.31558H118.387C119.121 4.31558 119.541 3.50641 119.153 2.89144C118.506 1.88806 117.556 0.91706 116.693 0.312879L117.071 0C120.329 0.809171 121.462 2.40593 121.527 3.51719C121.559 3.97033 121.969 4.31558 122.433 4.31558H130.471C131.01 4.31558 131.517 4.06743 131.841 3.63587L131.992 3.45246ZM131.787 28.6986C132.208 28.1699 132.974 28.0836 133.492 28.4936C134.063 28.9467 134.775 29.5401 135.326 30.0688C135.218 30.4464 134.916 30.619 134.43 30.619H109.572L109.26 29.5833H120.189C120.696 29.5833 121.106 29.1733 121.106 28.6662V25.9042C121.106 25.3972 120.696 24.9872 120.189 24.9872H113.985L113.705 23.9515H120.178C120.685 23.9515 121.095 23.5415 121.095 23.0344V20.6824C121.095 20.1753 120.685 19.7653 120.178 19.7653H115.14C114.827 19.7653 114.535 19.9272 114.374 20.1969C113.359 21.8152 112.14 23.207 110.846 24.2212L110.36 23.8759C111.935 21.9555 113.456 19.0209 114.417 15.795C114.568 15.2987 115.086 15.0074 115.582 15.18L117.535 15.8382C117.416 16.0971 117.211 16.3129 116.877 16.4208C116.499 16.5287 116.175 16.7444 116.013 17.1005C116.013 17.1113 116.003 17.1113 116.003 17.122C115.657 17.8989 116.229 18.7728 117.082 18.7728H120.178C120.685 18.7728 121.095 18.3628 121.095 17.8557V15.4821C121.095 14.9319 121.57 14.5111 122.109 14.5759L124.062 14.8024C124.008 15.1261 123.857 15.3742 123.479 15.5361C123.156 15.6871 122.918 15.9784 122.918 16.3345V17.8557C122.918 18.3628 123.328 18.7728 123.835 18.7728H127.428C127.957 18.7728 128.464 18.5354 128.788 18.1146L128.96 17.8881C129.381 17.3594 130.158 17.2731 130.686 17.7047C131.237 18.147 131.906 18.708 132.445 19.2259C132.337 19.6035 132.035 19.7761 131.55 19.7761H123.835C123.328 19.7761 122.918 20.1861 122.918 20.6932V23.0452C122.918 23.5523 123.328 23.9622 123.835 23.9622H126.705C127.223 23.9622 127.709 23.7357 128.032 23.3473L128.216 23.1207C128.647 22.6028 129.413 22.5381 129.931 22.9697C130.46 23.412 131.107 23.9622 131.614 24.437C131.506 24.8146 131.237 24.9872 130.751 24.9872H123.825C123.318 24.9872 122.908 25.3972 122.908 25.9042V28.6662C122.908 29.1733 123.318 29.5833 123.825 29.5833H130.222C130.751 29.5833 131.258 29.3459 131.582 28.9252L131.787 28.6986Z" fill="#492E24"/>
<path d="M142.241 8.35068C141.141 9.87192 139.825 11.2853 138.508 12.4289L137.991 12.0837C140.44 9.28931 142.846 4.6177 143.978 1.06814C144.162 0.507117 144.755 0.205026 145.316 0.36686L147.517 1.00341C147.409 1.38102 147.107 1.58601 146.244 1.66153C154.94 5.14636 152.631 9.3972 150.873 8.01622C150.29 6.55971 148.974 4.67165 147.14 2.99936C146.611 2.51386 145.769 2.6649 145.435 3.30145C144.939 4.26167 144.367 5.26504 143.73 6.25762C143.256 6.99127 143.773 7.95149 144.637 7.95149H146.46C146.784 7.95149 147.096 7.81123 147.301 7.56308L147.496 7.32573C147.884 6.8618 148.564 6.79707 149.028 7.18547C149.481 7.5523 150.031 8.02701 150.452 8.44778C150.387 8.82539 150.042 8.99801 149.589 8.99801H142.414L142.241 8.35068ZM148.812 11.3176C149.2 10.9077 149.826 10.8537 150.279 11.199L151.703 12.2886C151.595 12.4289 151.401 12.5799 151.132 12.6986C150.754 12.8605 150.527 13.2704 150.527 13.6804V20.5745C150.527 20.9845 150.312 21.3621 149.945 21.5456C149.664 21.6858 149.319 21.7937 149.006 21.7937H148.769V20.758H143.687C143.083 20.758 142.597 21.2435 142.597 21.8476V26.4437C142.597 27.2313 143.396 27.76 144.119 27.4471C145.003 27.0587 145.953 26.6487 146.935 26.2172C147.55 25.9474 147.787 25.1814 147.42 24.6204C147.075 24.0917 146.719 23.6062 146.384 23.1747L146.87 22.9373C152.944 26.9724 151.39 31.1585 149.6 29.6049C149.502 28.9576 149.276 28.2131 148.941 27.4579C148.672 26.8537 147.938 26.6379 147.377 26.994C145.813 27.9758 143.784 29.2596 141.659 30.4896C141.519 30.5651 141.411 30.6838 141.314 30.8133C141.141 31.0398 140.958 31.1801 140.796 31.2664L140.138 29.8746C139.922 29.4215 140.084 28.9036 140.483 28.5907C140.753 28.375 140.807 28.1592 140.807 27.7708V12.4613C140.807 11.6629 141.648 11.1342 142.371 11.4687L142.554 11.555C142.705 11.6197 142.856 11.6629 143.018 11.6629H148.024C148.316 11.6737 148.607 11.5442 148.812 11.3176ZM148.769 14.4464V13.702C148.769 13.0978 148.283 12.6123 147.679 12.6123H143.687C143.083 12.6123 142.597 13.0978 142.597 13.702V14.4464C142.597 15.0506 143.083 15.5361 143.687 15.5361H147.679C148.272 15.5361 148.769 15.0506 148.769 14.4464ZM148.769 18.6217V17.6723C148.769 17.0681 148.283 16.5826 147.679 16.5826H143.687C143.083 16.5826 142.597 17.0681 142.597 17.6723V18.6217C142.597 19.2259 143.083 19.7114 143.687 19.7114H147.679C148.272 19.7114 148.769 19.2259 148.769 18.6217ZM158.36 6.41946C157.961 6.41946 157.583 6.64602 157.4 7.00206C155.911 9.80718 154.152 12.3102 152.286 14.1551L151.768 13.8099C153.947 10.8969 156.148 6.3763 157.54 1.66153C157.713 1.05735 158.339 0.722896 158.932 0.927885L160.809 1.56443C160.691 1.83416 160.464 2.06072 160.086 2.16861C159.73 2.26571 159.428 2.49228 159.299 2.83753C159.158 3.19356 159.018 3.53881 158.878 3.88406C158.576 4.60691 159.105 5.39451 159.881 5.39451H164.995C165.276 5.39451 165.556 5.28662 165.761 5.08163L165.923 4.91979C166.355 4.49902 167.056 4.50981 167.477 4.95216L168.782 6.32236C168.577 6.52735 168.297 6.62445 167.854 6.6676C167.542 6.69997 167.25 6.87259 167.067 7.13153C165.848 8.87934 163.69 11.6089 162.32 13.1949L161.802 12.9144C162.481 11.6952 163.528 9.74245 164.402 8.00543C164.769 7.28257 164.24 6.41946 163.42 6.41946H158.36V6.41946Z" fill="#492E24"/>
<path d="M161.813 15.2664C161.813 15.2664 161.575 17.6076 157.324 19.2906C153.073 20.9737 153.073 24.998 153.073 24.998C153.073 24.998 153.073 28.0405 155.76 29.0223C155.76 29.0223 158.446 30.3601 162.471 30.3601C162.471 30.3601 166.495 30.3601 167.833 29.0223C167.833 29.0223 170.411 27.5118 169.796 23.5738C169.796 23.5738 169.181 20.9737 166.495 19.6251" fill="#492E24"/>
<path d="M155.415 26.9077C155.415 26.9077 157.724 29.2057 162.374 29.2057C162.374 29.2057 167.024 29.2057 168.178 26.8861" fill="#F1F2ED"/>
<path d="M155.274 25.0303C155.361 23.8327 156.278 22.8833 157.216 22.236C158.241 21.5239 159.385 21.006 160.291 20.1321C160.442 19.9919 160.216 19.7545 160.065 19.9056C158.382 21.5347 155.156 22.2791 154.962 25.0411C154.94 25.2353 155.264 25.2353 155.274 25.0303Z" fill="#F1F2ED"/>
<path d="M158.824 24.3506C159.45 23.5414 160.108 22.7538 160.68 21.9123C161.208 21.1355 161.618 20.2508 161.597 19.2906C161.597 19.0856 161.273 19.0856 161.273 19.2906C161.284 20.2292 160.863 21.0708 160.345 21.8152C159.795 22.6028 159.18 23.3472 158.597 24.1132C158.468 24.2859 158.694 24.5232 158.824 24.3506Z" fill="#F1F2ED"/>
<path d="M162.6 18.2225C162.935 18.859 163.485 19.3014 164.067 19.7006C164.726 20.1537 165.384 20.5853 165.945 21.1679C167.067 22.3439 167.79 23.8759 167.984 25.4942C168.005 25.6992 168.329 25.6992 168.308 25.4942C168.124 23.9406 167.488 22.4733 166.473 21.2758C165.977 20.6824 165.384 20.1969 164.747 19.7653C164.035 19.2906 163.28 18.8375 162.881 18.0607C162.784 17.8773 162.514 18.0391 162.6 18.2225Z" fill="#F1F2ED"/>
<path d="M164.758 24.5449C164.877 23.0021 163.97 21.6858 163.042 20.553C162.913 20.3912 162.686 20.6177 162.816 20.7796C163.69 21.8477 164.553 23.0884 164.434 24.5449C164.413 24.7607 164.736 24.7607 164.758 24.5449Z" fill="#F1F2ED"/>
</g>
<defs>
<clipPath id="clip0_158_3300">
<rect width="169.883" height="32" fill="white"/>
</clipPath>
</defs>
</svg>
